{"title":"Memperbarui waktu dan nama bab mp4 dengan ffmpeg?","draft":false,"url":"/memperbarui-waktu-dan-nama-bab-mp4-dengan-ffmpeg-v7fy9gcx","votes":"4","answers_count":"1","categories":["Komputer"],"tags":["video","ffmpeg","metadata","chapters"],"snippet":"Saya mencoba menambahkan bab khusus dengan ffmpeg ke file mp4 dengan mengekstrak file metadata dan mengikuti  panduan ini  .  Namun, ketika saya mengedit file metadata untuk mengubah salah satu nama bab, perintah...","body":"<p> Saya mencoba menambahkan bab khusus dengan ffmpeg ke file mp4 dengan mengekstrak file metadata dan mengikuti <a href=\"https://ffmpeg.org/ffmpeg-formats.html#Metadata-1\" rel=\"nofollow noopener\" target=\"_blank\"> panduan ini </a> . </p>\n\n<p> Namun, ketika saya mengedit file metadata untuk mengubah salah satu nama bab, perintah kedua untuk menambahkan kembali metadata mengabaikan perubahan pada bab dan membiarkannya apa adanya. Itu pasti membaca di file metadata dengan benar, seperti ketika ffmpeg mencetak data dari dua file masukan, itu mencetak aliran mp4 dan semua metadata dari file metadata, dengan semua bab diformat dan diurai dengan benar. </p>\n\n<p> Segera setelah itu membuat file keluaran, ia memiliki nama bab yang lama lagi. Jika saya mengubah metadata lain yang berfungsi (seperti kunci judul atau kunci artis), tetapi bab tidak. </p>\n\n<p> Log lengkap dari awal perintah: </p> <pre><code>PS D:\\ffmpeg&gt; ./bin/ffmpeg.exe -i .\\new_file.mp4 -i FFMETADATAFILE -map_metadata 1 -codec copy .\\output.mp4\nffmpeg version N-90979-g08032331ac Copyright (c) 2000-2018 the FFmpeg developers\n  built with gcc 7.3.0 (GCC)\n  configuration: --enable-gpl --enable-version3 --enable-sdl2 --enable-bzlib --enable-fontconfig --enable-gnutls --enable-iconv --enable-libass --enable-libbluray --enable-libfreetype --enable-libmp3lame --enable-libopencore-amrnb --enable-libopencore-amrwb --enable-libopenjpeg --enable-libopus --enable-libshine --enable-libsnappy --enable-libsoxr --enable-libtheora --enable-libtwolame --enable-libvpx --enable-libwavpack --enable-libwebp --enable-libx264 --enable-libx265 --enable-libxml2 --enable-libzimg --enable-lzma --enable-zlib --enable-gmp --enable-libvidstab --enable-libvorbis --enable-libvo-amrwbenc --enable-libmysofa --enable-libspeex --enable-libxvid --enable-libaom --enable-libmfx --enable-amf --enable-ffnvcodec --enable-cuvid --enable-d3d11va --enable-nvenc --enable-nvdec --enable-dxva2 --enable-avisynth\n  libavutil      56. 18.100 / 56. 18.100\n  libavcodec     58. 19.100 / 58. 19.100\n  libavformat    58. 13.101 / 58. 13.101\n  libavdevice    58.  4.100 / 58.  4.100\n  libavfilter     7. 21.100 /  7. 21.100\n  libswscale      5.  2.100 /  5.  2.100\n  libswresample   3.  2.100 /  3.  2.100\n  libpostproc    55.  2.100 / 55.  2.100\nInput #0, mov,mp4,m4a,3gp,3g2,mj2, from '.\\new_file.mp4':\n  Metadata:\n    major_brand     : isom\n    minor_version   : 512\n    compatible_brands: isomiso2avc1mp41\n    title           : new_file\n    encoder         : Lavf57.46.100\n  Duration: 02:01:34.85, start: 0.000000, bitrate: 2940 kb/s\n    Chapter #0:0: start 0.000000, end 628.962000\n    Metadata:\n      title           : Chapter 1\n    Chapter #0:1: start 628.962000, end 1042.083000\n    Metadata:\n      title           : Chapter 2\n    Chapter #0:2: start 1042.083000, end 1882.172000\n    Metadata:\n      title           : Chapter 3\n    Chapter #0:3: start 1882.172000, end 2479.102000\n    Metadata:\n      title           : Chapter 4\n    Chapter #0:4: start 2479.102000, end 3095.718000\n    Metadata:\n      title           : Chapter 5\n    Chapter #0:5: start 3095.718000, end 3681.511000\n    Metadata:\n      title           : Chapter 6\n    Chapter #0:6: start 3681.511000, end 4145.600000\n    Metadata:\n      title           : Chapter 7\n    Chapter #0:7: start 4145.600000, end 5149.019000\n    Metadata:\n      title           : Chapter 8\n    Chapter #0:8: start 5149.019000, end 5704.908000\n    Metadata:\n      title           : Chapter 9\n    Chapter #0:9: start 5704.908000, end 5980.850000\n    Metadata:\n      title           : Chapter 10\n    Chapter #0:10: start 5980.850000, end 6826.403000\n    Metadata:\n      title           : Chapter 11\n    Chapter #0:11: start 6826.403000, end 7294.746000\n    Metadata:\n      title           : Chapter 12\n    Stream #0:0(und): Video: h264 (High) (avc1 / 0x31637661), yuv420p(tv, bt709), 1920x816 [SAR 1:1 DAR 40:17], 2678 kb/s, 23.98 fps, 23.98 tbr, 90k tbn, 47.95 tbc (default)\n    Metadata:\n      handler_name    : VideoHandler\n    Stream #0:1(eng): Audio: aac (LC) (mp4a / 0x6134706D), 48000 Hz, stereo, fltp, 256 kb/s (default)\n    Metadata:\n      handler_name    : SoundHandler\n    Stream #0:2(eng): Data: bin_data (text / 0x74786574)\n    Metadata:\n      handler_name    : SubtitleHandler\nInput #1, ffmetadata, from 'FFMETADATAFILE':\n  Metadata:\n    major_brand     : isom\n    minor_version   : 512\n    compatible_brands: isomiso2avc1mp41\n    title           : Title\n    encoder         : Lavf58.13.101\n  Duration: 02:01:34.75, start: 0.000000, bitrate: 0 kb/s\n    Chapter #1:0: start 0.000000, end 628.962000\n    Metadata:\n      title           : Edited Name\n    Chapter #1:1: start 628.962000, end 1042.083000\n    Metadata:\n      title           : Chapter 2\n    Chapter #1:2: start 1042.083000, end 1882.172000\n    Metadata:\n      title           : Chapter 3\n    Chapter #1:3: start 1882.172000, end 2479.102000\n    Metadata:\n      title           : Chapter 4\n    Chapter #1:4: start 2479.102000, end 3095.718000\n    Metadata:\n      title           : Chapter 5\n    Chapter #1:5: start 3095.718000, end 3681.511000\n    Metadata:\n      title           : Chapter 6\n    Chapter #1:6: start 3681.511000, end 4145.600000\n    Metadata:\n      title           : Chapter 7\n    Chapter #1:7: start 4145.600000, end 5149.019000\n    Metadata:\n      title           : Chapter 8\n    Chapter #1:8: start 5149.019000, end 5704.908000\n    Metadata:\n      title           : Chapter 9\n    Chapter #1:9: start 5704.908000, end 5980.850000\n    Metadata:\n      title           : Chapter 10\n    Chapter #1:10: start 5980.850000, end 6826.403000\n    Metadata:\n      title           : Chapter 11\n    Chapter #1:11: start 6826.403000, end 7294.746000\n    Metadata:\n      title           : Chapter 12\nFile '.\\output.mp4' already exists. Overwrite ? [y/N] y\nOutput #0, mp4, to '.\\output.mp4':\n  Metadata:\n    major_brand     : isom\n    minor_version   : 512\n    compatible_brands: isomiso2avc1mp41\n    title           : Title\n    encoder         : Lavf58.13.101\n    Chapter #0:0: start 0.000000, end 628.962000\n    Metadata:\n      title           : Chapter 1\n    Chapter #0:1: start 628.962000, end 1042.083000\n    Metadata:\n      title           : Chapter 2\n    Chapter #0:2: start 1042.083000, end 1882.172000\n    Metadata:\n      title           : Chapter 3\n    Chapter #0:3: start 1882.172000, end 2479.102000\n    Metadata:\n      title           : Chapter 4\n    Chapter #0:4: start 2479.102000, end 3095.718000\n    Metadata:\n      title           : Chapter 5\n    Chapter #0:5: start 3095.718000, end 3681.511000\n    Metadata:\n      title           : Chapter 6\n    Chapter #0:6: start 3681.511000, end 4145.600000\n    Metadata:\n      title           : Chapter 7\n    Chapter #0:7: start 4145.600000, end 5149.019000\n    Metadata:\n      title           : Chapter 8\n    Chapter #0:8: start 5149.019000, end 5704.908000\n    Metadata:\n      title           : Chapter 9\n    Chapter #0:9: start 5704.908000, end 5980.850000\n    Metadata:\n      title           : Chapter 10\n    Chapter #0:10: start 5980.850000, end 6826.403000\n    Metadata:\n      title           : Chapter 11\n    Chapter #0:11: start 6826.403000, end 7294.746000\n    Metadata:\n      title           : Chapter 12\n    Stream #0:0(und): Video: h264 (High) (avc1 / 0x31637661), yuv420p(tv, bt709), 1920x816 [SAR 1:1 DAR 40:17], q=2-31, 2678 kb/s, 23.98 fps, 23.98 tbr, 90k tbn, 90k tbc (default)\n    Metadata:\n      handler_name    : VideoHandler\n    Stream #0:1(eng): Audio: aac (LC) (mp4a / 0x6134706D), 48000 Hz, stereo, fltp, 256 kb/s (default)\n    Metadata:\n      handler_name    : SoundHandler\nStream mapping:\n  Stream #0:0 -&gt; #0:0 (copy)\n  Stream #0:1 -&gt; #0:1 (copy)\n</code></pre> <p> Anda dapat melihat saya telah mengedit kunci judul dan nama bab pertama di Input # 1, file metadata, tetapi hanya judul yang berbeda di output. </p>\n\n<p> Setiap bantuan dihargai. </p>","source":"https://superuser.com/questions/1320389/updating-mp4-chapter-times-and-names-with-ffmpeg","author":"<a href=\"https://superuser.com/users/902431/cogm\" target=\"_blank\" rel=\"nofollow noopener\"><span itemprop=\"name\">cogm</span></a>","replies":[{"reply":"Bagikan perintah dan log lengkap.","author":"<a href=\"https://superuser.com/users/114058/gyan\" target=\"_blank\" rel=\"nofollow noopener\">Gyan</a>"},{"reply":"@Gyan Telah menambahkannya ke pertanyaan.","author":"<a href=\"https://superuser.com/users/902431/cogm\" target=\"_blank\" rel=\"nofollow noopener\">cogm</a>"}],"answers":[{"answer":"<p> Diselesaikan - sepertinya <code>-map_metadata</code> hanya melakukan tombol atas sebelum bab, Anda perlu <code>-map_chapters</code> untuk mendapatkan bab juga. </p>\n\n<p> <code>ffmpeg -i INPUT -i FFMETADATAFILE -map_metadata 1 -map_chapters 1 -codec copy OUTPUT</code> </p>","votes":"7","source":"https://superuser.com/a/1320404","author":"<a href=\"https://superuser.com/users/902431/cogm\" target=\"_blank\" rel=\"nofollow noopener\"><span itemprop=\"name\">cogm</span></a>","replies":[]}]}
